<mxfile host="Electron" agent="Mozilla/5.0 (Macintosh; Intel Mac OS X 10_15_7) AppleWebKit/537.36 (KHTML, like Gecko) draw.io/27.0.2 Chrome/134.0.6998.205 Electron/35.3.0 Safari/537.36" version="27.0.2" pages="2">
  <diagram name="Fluxogramas" id="xQIqP9B8EkHaDndvP4lS">
    <mxGraphModel dx="1773" dy="732" grid="1" gridSize="10" guides="1" tooltips="1" connect="1" arrows="1" fold="1" page="1" pageScale="1" pageWidth="827" pageHeight="1169" math="0" shadow="0">
      <root>
        <mxCell id="0" />
        <mxCell id="1" parent="0" />
        <mxCell id="2UPEshlx9W18VEsSvaUy-1" style="edgeStyle=orthogonalEdgeStyle;rounded=0;orthogonalLoop=1;jettySize=auto;html=1;exitX=0.5;exitY=1;exitDx=0;exitDy=0;entryX=0.5;entryY=0;entryDx=0;entryDy=0;" parent="1" source="2UPEshlx9W18VEsSvaUy-2" target="2UPEshlx9W18VEsSvaUy-4" edge="1">
          <mxGeometry relative="1" as="geometry" />
        </mxCell>
        <mxCell id="2UPEshlx9W18VEsSvaUy-2" value="Evento&lt;br&gt;Chegada de Autocarro" style="ellipse;whiteSpace=wrap;html=1;" parent="1" vertex="1">
          <mxGeometry x="-130" y="400" width="120" height="50" as="geometry" />
        </mxCell>
        <mxCell id="2UPEshlx9W18VEsSvaUy-3" style="edgeStyle=orthogonalEdgeStyle;rounded=0;orthogonalLoop=1;jettySize=auto;html=1;exitX=0.5;exitY=1;exitDx=0;exitDy=0;entryX=0.5;entryY=0;entryDx=0;entryDy=0;" parent="1" source="2UPEshlx9W18VEsSvaUy-4" target="2UPEshlx9W18VEsSvaUy-6" edge="1">
          <mxGeometry relative="1" as="geometry" />
        </mxCell>
        <mxCell id="2UPEshlx9W18VEsSvaUy-4" value="Registar chegada" style="rounded=0;whiteSpace=wrap;html=1;" parent="1" vertex="1">
          <mxGeometry x="-130" y="480" width="120" height="60" as="geometry" />
        </mxCell>
        <mxCell id="2UPEshlx9W18VEsSvaUy-5" style="edgeStyle=orthogonalEdgeStyle;rounded=0;orthogonalLoop=1;jettySize=auto;html=1;exitX=0.5;exitY=1;exitDx=0;exitDy=0;entryX=0.5;entryY=0;entryDx=0;entryDy=0;" parent="1" source="2UPEshlx9W18VEsSvaUy-6" target="2UPEshlx9W18VEsSvaUy-16" edge="1">
          <mxGeometry relative="1" as="geometry" />
        </mxCell>
        <mxCell id="2UPEshlx9W18VEsSvaUy-6" value="Agendar próxima chegada" style="rounded=0;whiteSpace=wrap;html=1;" parent="1" vertex="1">
          <mxGeometry x="-130" y="570" width="120" height="60" as="geometry" />
        </mxCell>
        <mxCell id="2UPEshlx9W18VEsSvaUy-7" style="edgeStyle=orthogonalEdgeStyle;rounded=0;orthogonalLoop=1;jettySize=auto;html=1;exitX=0.5;exitY=1;exitDx=0;exitDy=0;entryX=1;entryY=0.5;entryDx=0;entryDy=0;" parent="1" source="2UPEshlx9W18VEsSvaUy-8" target="2UPEshlx9W18VEsSvaUy-11" edge="1">
          <mxGeometry relative="1" as="geometry" />
        </mxCell>
        <mxCell id="2UPEshlx9W18VEsSvaUy-8" value="Iniciar inspeção imediatamente" style="rounded=0;whiteSpace=wrap;html=1;" parent="1" vertex="1">
          <mxGeometry x="10" y="670" width="120" height="60" as="geometry" />
        </mxCell>
        <mxCell id="2UPEshlx9W18VEsSvaUy-9" style="edgeStyle=orthogonalEdgeStyle;rounded=0;orthogonalLoop=1;jettySize=auto;html=1;exitX=0.5;exitY=1;exitDx=0;exitDy=0;entryX=0;entryY=0.5;entryDx=0;entryDy=0;" parent="1" source="2UPEshlx9W18VEsSvaUy-10" target="2UPEshlx9W18VEsSvaUy-11" edge="1">
          <mxGeometry relative="1" as="geometry" />
        </mxCell>
        <mxCell id="2UPEshlx9W18VEsSvaUy-10" value="Colocar autocarro na fila de inspeção" style="rounded=0;whiteSpace=wrap;html=1;" parent="1" vertex="1">
          <mxGeometry x="-270" y="670" width="120" height="60" as="geometry" />
        </mxCell>
        <mxCell id="2UPEshlx9W18VEsSvaUy-11" value="Retomar" style="rounded=0;whiteSpace=wrap;html=1;" parent="1" vertex="1">
          <mxGeometry x="-130" y="770" width="120" height="60" as="geometry" />
        </mxCell>
        <mxCell id="2UPEshlx9W18VEsSvaUy-12" style="edgeStyle=orthogonalEdgeStyle;rounded=0;orthogonalLoop=1;jettySize=auto;html=1;exitX=0;exitY=0.5;exitDx=0;exitDy=0;entryX=1;entryY=0.5;entryDx=0;entryDy=0;" parent="1" source="2UPEshlx9W18VEsSvaUy-16" target="2UPEshlx9W18VEsSvaUy-10" edge="1">
          <mxGeometry relative="1" as="geometry" />
        </mxCell>
        <mxCell id="2UPEshlx9W18VEsSvaUy-13" value="Não" style="edgeLabel;html=1;align=center;verticalAlign=middle;resizable=0;points=[];" parent="2UPEshlx9W18VEsSvaUy-12" vertex="1" connectable="0">
          <mxGeometry x="-0.2" relative="1" as="geometry">
            <mxPoint y="-10" as="offset" />
          </mxGeometry>
        </mxCell>
        <mxCell id="2UPEshlx9W18VEsSvaUy-14" style="edgeStyle=orthogonalEdgeStyle;rounded=0;orthogonalLoop=1;jettySize=auto;html=1;exitX=1;exitY=0.5;exitDx=0;exitDy=0;entryX=0;entryY=0.5;entryDx=0;entryDy=0;" parent="1" source="2UPEshlx9W18VEsSvaUy-16" target="2UPEshlx9W18VEsSvaUy-8" edge="1">
          <mxGeometry relative="1" as="geometry" />
        </mxCell>
        <mxCell id="2UPEshlx9W18VEsSvaUy-15" value="Sim" style="edgeLabel;html=1;align=center;verticalAlign=middle;resizable=0;points=[];" parent="2UPEshlx9W18VEsSvaUy-14" vertex="1" connectable="0">
          <mxGeometry x="-0.3" relative="1" as="geometry">
            <mxPoint y="-10" as="offset" />
          </mxGeometry>
        </mxCell>
        <mxCell id="2UPEshlx9W18VEsSvaUy-16" value="Fila&amp;nbsp;&lt;div&gt;inspeção&lt;div&gt;vazia?&lt;/div&gt;&lt;/div&gt;" style="rhombus;whiteSpace=wrap;html=1;" parent="1" vertex="1">
          <mxGeometry x="-110" y="660" width="80" height="80" as="geometry" />
        </mxCell>
        <mxCell id="2UPEshlx9W18VEsSvaUy-17" style="edgeStyle=orthogonalEdgeStyle;rounded=0;orthogonalLoop=1;jettySize=auto;html=1;exitX=0.5;exitY=1;exitDx=0;exitDy=0;entryX=0.5;entryY=0;entryDx=0;entryDy=0;" parent="1" source="2UPEshlx9W18VEsSvaUy-18" target="2UPEshlx9W18VEsSvaUy-20" edge="1">
          <mxGeometry relative="1" as="geometry" />
        </mxCell>
        <mxCell id="2UPEshlx9W18VEsSvaUy-18" value="Evento&lt;br&gt;Fim da Inspeção" style="ellipse;whiteSpace=wrap;html=1;" parent="1" vertex="1">
          <mxGeometry x="370" y="400" width="120" height="50" as="geometry" />
        </mxCell>
        <mxCell id="2UPEshlx9W18VEsSvaUy-19" style="edgeStyle=orthogonalEdgeStyle;rounded=0;orthogonalLoop=1;jettySize=auto;html=1;exitX=0.5;exitY=1;exitDx=0;exitDy=0;entryX=0.5;entryY=0;entryDx=0;entryDy=0;" parent="1" source="2UPEshlx9W18VEsSvaUy-20" target="2UPEshlx9W18VEsSvaUy-28" edge="1">
          <mxGeometry relative="1" as="geometry">
            <mxPoint x="430" y="570" as="targetPoint" />
          </mxGeometry>
        </mxCell>
        <mxCell id="2UPEshlx9W18VEsSvaUy-20" value="Libertar estação de inspeção" style="rounded=0;whiteSpace=wrap;html=1;" parent="1" vertex="1">
          <mxGeometry x="370" y="480" width="120" height="60" as="geometry" />
        </mxCell>
        <mxCell id="2UPEshlx9W18VEsSvaUy-21" style="edgeStyle=orthogonalEdgeStyle;rounded=0;orthogonalLoop=1;jettySize=auto;html=1;exitX=0.5;exitY=1;exitDx=0;exitDy=0;entryX=0.5;entryY=0;entryDx=0;entryDy=0;" parent="1" source="2UPEshlx9W18VEsSvaUy-22" target="2UPEshlx9W18VEsSvaUy-23" edge="1">
          <mxGeometry relative="1" as="geometry" />
        </mxCell>
        <mxCell id="2UPEshlx9W18VEsSvaUy-22" value="Saída do sistema" style="rounded=0;whiteSpace=wrap;html=1;" parent="1" vertex="1">
          <mxGeometry x="200" y="580" width="120" height="60" as="geometry" />
        </mxCell>
        <mxCell id="2UPEshlx9W18VEsSvaUy-23" value="Retomar" style="rounded=0;whiteSpace=wrap;html=1;" parent="1" vertex="1">
          <mxGeometry x="200" y="680" width="120" height="60" as="geometry" />
        </mxCell>
        <mxCell id="2UPEshlx9W18VEsSvaUy-24" style="edgeStyle=orthogonalEdgeStyle;rounded=0;orthogonalLoop=1;jettySize=auto;html=1;exitX=0;exitY=0.5;exitDx=0;exitDy=0;entryX=1;entryY=0.5;entryDx=0;entryDy=0;" parent="1" source="2UPEshlx9W18VEsSvaUy-28" target="2UPEshlx9W18VEsSvaUy-22" edge="1">
          <mxGeometry relative="1" as="geometry" />
        </mxCell>
        <mxCell id="2UPEshlx9W18VEsSvaUy-25" value="Não (70%)" style="edgeLabel;html=1;align=center;verticalAlign=middle;resizable=0;points=[];" parent="2UPEshlx9W18VEsSvaUy-24" vertex="1" connectable="0">
          <mxGeometry x="-0.2" relative="1" as="geometry">
            <mxPoint y="-10" as="offset" />
          </mxGeometry>
        </mxCell>
        <mxCell id="2UPEshlx9W18VEsSvaUy-26" style="edgeStyle=orthogonalEdgeStyle;rounded=0;orthogonalLoop=1;jettySize=auto;html=1;exitX=1;exitY=0.5;exitDx=0;exitDy=0;entryX=0;entryY=0.5;entryDx=0;entryDy=0;" parent="1" source="2UPEshlx9W18VEsSvaUy-28" target="2UPEshlx9W18VEsSvaUy-37" edge="1">
          <mxGeometry relative="1" as="geometry">
            <mxPoint x="530" y="620" as="targetPoint" />
          </mxGeometry>
        </mxCell>
        <mxCell id="2UPEshlx9W18VEsSvaUy-27" value="Sim (30%)" style="edgeLabel;html=1;align=center;verticalAlign=middle;resizable=0;points=[];" parent="2UPEshlx9W18VEsSvaUy-26" vertex="1" connectable="0">
          <mxGeometry x="-0.3" relative="1" as="geometry">
            <mxPoint x="7" y="-10" as="offset" />
          </mxGeometry>
        </mxCell>
        <mxCell id="2UPEshlx9W18VEsSvaUy-28" value="Necessita&amp;nbsp;&lt;div&gt;reparo?&lt;/div&gt;" style="rhombus;whiteSpace=wrap;html=1;" parent="1" vertex="1">
          <mxGeometry x="390" y="570" width="80" height="80" as="geometry" />
        </mxCell>
        <mxCell id="2UPEshlx9W18VEsSvaUy-29" style="edgeStyle=orthogonalEdgeStyle;rounded=0;orthogonalLoop=1;jettySize=auto;html=1;exitX=0;exitY=0.5;exitDx=0;exitDy=0;entryX=1;entryY=0.5;entryDx=0;entryDy=0;" parent="1" source="2UPEshlx9W18VEsSvaUy-30" target="2UPEshlx9W18VEsSvaUy-23" edge="1">
          <mxGeometry relative="1" as="geometry" />
        </mxCell>
        <mxCell id="2UPEshlx9W18VEsSvaUy-30" value="Iniciar reparação imediatamente" style="rounded=0;whiteSpace=wrap;html=1;" parent="1" vertex="1">
          <mxGeometry x="517" y="680" width="120" height="60" as="geometry" />
        </mxCell>
        <mxCell id="2UPEshlx9W18VEsSvaUy-31" style="edgeStyle=orthogonalEdgeStyle;rounded=0;orthogonalLoop=1;jettySize=auto;html=1;exitX=0.5;exitY=1;exitDx=0;exitDy=0;entryX=0.5;entryY=1;entryDx=0;entryDy=0;" parent="1" source="2UPEshlx9W18VEsSvaUy-32" target="2UPEshlx9W18VEsSvaUy-23" edge="1">
          <mxGeometry relative="1" as="geometry" />
        </mxCell>
        <mxCell id="2UPEshlx9W18VEsSvaUy-32" value="Colocar autocarro na fila de reparação" style="rounded=0;whiteSpace=wrap;html=1;" parent="1" vertex="1">
          <mxGeometry x="660" y="680" width="120" height="60" as="geometry" />
        </mxCell>
        <mxCell id="2UPEshlx9W18VEsSvaUy-33" style="edgeStyle=orthogonalEdgeStyle;rounded=0;orthogonalLoop=1;jettySize=auto;html=1;exitX=1;exitY=0.5;exitDx=0;exitDy=0;entryX=0.5;entryY=0;entryDx=0;entryDy=0;" parent="1" source="2UPEshlx9W18VEsSvaUy-37" target="2UPEshlx9W18VEsSvaUy-32" edge="1">
          <mxGeometry relative="1" as="geometry">
            <Array as="points">
              <mxPoint x="720" y="610" />
            </Array>
          </mxGeometry>
        </mxCell>
        <mxCell id="2UPEshlx9W18VEsSvaUy-34" value="Não" style="edgeLabel;html=1;align=center;verticalAlign=middle;resizable=0;points=[];" parent="2UPEshlx9W18VEsSvaUy-33" vertex="1" connectable="0">
          <mxGeometry x="-0.2" relative="1" as="geometry">
            <mxPoint x="-56" y="-10" as="offset" />
          </mxGeometry>
        </mxCell>
        <mxCell id="2UPEshlx9W18VEsSvaUy-35" style="edgeStyle=orthogonalEdgeStyle;rounded=0;orthogonalLoop=1;jettySize=auto;html=1;exitX=0.5;exitY=1;exitDx=0;exitDy=0;entryX=0.5;entryY=0;entryDx=0;entryDy=0;" parent="1" source="2UPEshlx9W18VEsSvaUy-37" target="2UPEshlx9W18VEsSvaUy-30" edge="1">
          <mxGeometry relative="1" as="geometry" />
        </mxCell>
        <mxCell id="2UPEshlx9W18VEsSvaUy-36" value="Sim" style="edgeLabel;html=1;align=center;verticalAlign=middle;resizable=0;points=[];" parent="2UPEshlx9W18VEsSvaUy-35" vertex="1" connectable="0">
          <mxGeometry x="-0.3" relative="1" as="geometry">
            <mxPoint x="13" as="offset" />
          </mxGeometry>
        </mxCell>
        <mxCell id="2UPEshlx9W18VEsSvaUy-37" value="Fila&lt;div&gt;reparação&lt;/div&gt;&lt;div&gt;vazia?&lt;/div&gt;" style="rhombus;whiteSpace=wrap;html=1;" parent="1" vertex="1">
          <mxGeometry x="537" y="570" width="80" height="80" as="geometry" />
        </mxCell>
        <mxCell id="2UPEshlx9W18VEsSvaUy-38" style="edgeStyle=orthogonalEdgeStyle;rounded=0;orthogonalLoop=1;jettySize=auto;html=1;exitX=0.5;exitY=1;exitDx=0;exitDy=0;entryX=0.5;entryY=0;entryDx=0;entryDy=0;" parent="1" source="2UPEshlx9W18VEsSvaUy-39" target="2UPEshlx9W18VEsSvaUy-41" edge="1">
          <mxGeometry relative="1" as="geometry" />
        </mxCell>
        <mxCell id="2UPEshlx9W18VEsSvaUy-39" value="&lt;div&gt;Evento&lt;/div&gt;&lt;div&gt;Fim da Reparação&lt;/div&gt;" style="ellipse;whiteSpace=wrap;html=1;" parent="1" vertex="1">
          <mxGeometry x="860" y="400" width="120" height="50" as="geometry" />
        </mxCell>
        <mxCell id="nL295JHVEjOsVsGAnOce-2" style="edgeStyle=orthogonalEdgeStyle;rounded=0;orthogonalLoop=1;jettySize=auto;html=1;exitX=0.5;exitY=1;exitDx=0;exitDy=0;entryX=0.5;entryY=0;entryDx=0;entryDy=0;" parent="1" source="2UPEshlx9W18VEsSvaUy-41" target="nL295JHVEjOsVsGAnOce-1" edge="1">
          <mxGeometry relative="1" as="geometry" />
        </mxCell>
        <mxCell id="2UPEshlx9W18VEsSvaUy-41" value="Libertar estação de reparação" style="rounded=0;whiteSpace=wrap;html=1;" parent="1" vertex="1">
          <mxGeometry x="860" y="480" width="120" height="60" as="geometry" />
        </mxCell>
        <mxCell id="2UPEshlx9W18VEsSvaUy-42" value="Retomar" style="rounded=0;whiteSpace=wrap;html=1;" parent="1" vertex="1">
          <mxGeometry x="860" y="660" width="120" height="60" as="geometry" />
        </mxCell>
        <mxCell id="nL295JHVEjOsVsGAnOce-3" style="edgeStyle=orthogonalEdgeStyle;rounded=0;orthogonalLoop=1;jettySize=auto;html=1;exitX=0.5;exitY=1;exitDx=0;exitDy=0;entryX=0.5;entryY=0;entryDx=0;entryDy=0;" parent="1" source="nL295JHVEjOsVsGAnOce-1" target="2UPEshlx9W18VEsSvaUy-42" edge="1">
          <mxGeometry relative="1" as="geometry" />
        </mxCell>
        <mxCell id="nL295JHVEjOsVsGAnOce-1" value="Saída do sistema" style="rounded=0;whiteSpace=wrap;html=1;" parent="1" vertex="1">
          <mxGeometry x="860" y="570" width="120" height="60" as="geometry" />
        </mxCell>
      </root>
    </mxGraphModel>
  </diagram>
  <diagram id="w8EU0jebM9UiKpzFlE9m" name="Grafo de Eventos">
    <mxGraphModel dx="591" dy="458" grid="1" gridSize="10" guides="1" tooltips="1" connect="1" arrows="1" fold="1" page="1" pageScale="1" pageWidth="827" pageHeight="1169" math="0" shadow="0">
      <root>
        <mxCell id="0" />
        <mxCell id="1" parent="0" />
        <mxCell id="Hgv9ZsD2Dc_zdtLHSh5o-9" style="edgeStyle=orthogonalEdgeStyle;rounded=0;orthogonalLoop=1;jettySize=auto;html=1;exitX=1;exitY=0.5;exitDx=0;exitDy=0;entryX=0;entryY=0.5;entryDx=0;entryDy=0;strokeWidth=3;" edge="1" parent="1" source="Hgv9ZsD2Dc_zdtLHSh5o-1" target="Hgv9ZsD2Dc_zdtLHSh5o-2">
          <mxGeometry relative="1" as="geometry" />
        </mxCell>
        <mxCell id="Hgv9ZsD2Dc_zdtLHSh5o-1" value="Chegada" style="ellipse;whiteSpace=wrap;html=1;aspect=fixed;" vertex="1" parent="1">
          <mxGeometry x="160" y="240" width="80" height="80" as="geometry" />
        </mxCell>
        <mxCell id="Hgv9ZsD2Dc_zdtLHSh5o-11" style="edgeStyle=orthogonalEdgeStyle;rounded=0;orthogonalLoop=1;jettySize=auto;html=1;exitX=1;exitY=0.5;exitDx=0;exitDy=0;entryX=0;entryY=0.5;entryDx=0;entryDy=0;strokeWidth=3;" edge="1" parent="1" source="Hgv9ZsD2Dc_zdtLHSh5o-2" target="Hgv9ZsD2Dc_zdtLHSh5o-3">
          <mxGeometry relative="1" as="geometry" />
        </mxCell>
        <mxCell id="Hgv9ZsD2Dc_zdtLHSh5o-2" value="Fim da Inspeção" style="ellipse;whiteSpace=wrap;html=1;aspect=fixed;" vertex="1" parent="1">
          <mxGeometry x="320" y="240" width="80" height="80" as="geometry" />
        </mxCell>
        <mxCell id="Hgv9ZsD2Dc_zdtLHSh5o-3" value="Fim da Reparação" style="ellipse;whiteSpace=wrap;html=1;aspect=fixed;" vertex="1" parent="1">
          <mxGeometry x="480" y="240" width="80" height="80" as="geometry" />
        </mxCell>
        <mxCell id="Hgv9ZsD2Dc_zdtLHSh5o-4" value="" style="endArrow=classic;html=1;rounded=0;entryX=0;entryY=0.5;entryDx=0;entryDy=0;" edge="1" parent="1" target="Hgv9ZsD2Dc_zdtLHSh5o-1">
          <mxGeometry width="50" height="50" relative="1" as="geometry">
            <mxPoint x="70" y="280" as="sourcePoint" />
            <mxPoint x="280" y="290" as="targetPoint" />
            <Array as="points">
              <mxPoint x="80" y="280" />
              <mxPoint x="90" y="270" />
              <mxPoint x="100" y="290" />
              <mxPoint x="110" y="270" />
              <mxPoint x="120" y="290" />
              <mxPoint x="130" y="270" />
              <mxPoint x="140" y="280" />
              <mxPoint x="150" y="280" />
            </Array>
          </mxGeometry>
        </mxCell>
        <mxCell id="Hgv9ZsD2Dc_zdtLHSh5o-8" value="" style="curved=1;endArrow=classic;html=1;rounded=0;exitX=0;exitY=0;exitDx=0;exitDy=0;entryX=1;entryY=0;entryDx=0;entryDy=0;strokeWidth=3;" edge="1" parent="1" source="Hgv9ZsD2Dc_zdtLHSh5o-1" target="Hgv9ZsD2Dc_zdtLHSh5o-1">
          <mxGeometry width="50" height="50" relative="1" as="geometry">
            <mxPoint x="190" y="260" as="sourcePoint" />
            <mxPoint x="240" y="210" as="targetPoint" />
            <Array as="points">
              <mxPoint x="170" y="230" />
              <mxPoint x="200" y="220" />
              <mxPoint x="230" y="230" />
            </Array>
          </mxGeometry>
        </mxCell>
        <mxCell id="Hgv9ZsD2Dc_zdtLHSh5o-10" value="" style="curved=1;endArrow=classic;html=1;rounded=0;exitX=0;exitY=0;exitDx=0;exitDy=0;entryX=1;entryY=0;entryDx=0;entryDy=0;strokeWidth=3;" edge="1" parent="1" source="Hgv9ZsD2Dc_zdtLHSh5o-2" target="Hgv9ZsD2Dc_zdtLHSh5o-2">
          <mxGeometry width="50" height="50" relative="1" as="geometry">
            <mxPoint x="332" y="252" as="sourcePoint" />
            <mxPoint x="388" y="252" as="targetPoint" />
            <Array as="points">
              <mxPoint x="330" y="230" />
              <mxPoint x="360" y="220" />
              <mxPoint x="390" y="230" />
            </Array>
          </mxGeometry>
        </mxCell>
        <mxCell id="Hgv9ZsD2Dc_zdtLHSh5o-12" value="" style="curved=1;endArrow=classic;html=1;rounded=0;exitX=0;exitY=0;exitDx=0;exitDy=0;entryX=1;entryY=0;entryDx=0;entryDy=0;strokeWidth=3;" edge="1" parent="1" source="Hgv9ZsD2Dc_zdtLHSh5o-3" target="Hgv9ZsD2Dc_zdtLHSh5o-3">
          <mxGeometry width="50" height="50" relative="1" as="geometry">
            <mxPoint x="492" y="252" as="sourcePoint" />
            <mxPoint x="548" y="252" as="targetPoint" />
            <Array as="points">
              <mxPoint x="490" y="230" />
              <mxPoint x="520" y="220" />
              <mxPoint x="550" y="230" />
            </Array>
          </mxGeometry>
        </mxCell>
      </root>
    </mxGraphModel>
  </diagram>
</mxfile>
